<svg xmlns="http://www.w3.org/2000/svg" viewBox="0 0 64 64" width="64" height="64">
  <defs>
    <linearGradient id="bg" x1="0%" y1="0%" x2="100%" y2="100%">
      <stop offset="0%" style="stop-color:#1a1a2e"/>
      <stop offset="100%" style="stop-color:#16213e"/>
    </linearGradient>
    <linearGradient id="accent" x1="0%" y1="0%" x2="100%" y2="100%">
      <stop offset="0%" style="stop-color:#6366f1"/>
      <stop offset="100%" style="stop-color:#8b5cf6"/>
    </linearGradient>
  </defs>
  <rect width="64" height="64" rx="14" fill="url(#bg)"/>
  <g transform="translate(32, 28)">
    <ellipse cx="0" cy="-10" rx="15" ry="4.5" fill="none" stroke="url(#accent)" stroke-width="2"/>
    <path d="M -15,-10 L -15,10 Q -15,14.5 0,14.5 Q 15,14.5 15,10 L 15,-10" fill="none" stroke="url(#accent)" stroke-width="2"/>
    <ellipse cx="0" cy="0" rx="15" ry="4.5" fill="none" stroke="#6366f1" stroke-width="1" opacity="0.5"/>
  </g>
  <line x1="32" y1="18" x2="20" y2="10" stroke="#8b5cf6" stroke-width="1.5" opacity="0.6"/>
  <line x1="32" y1="18" x2="44" y2="10" stroke="#8b5cf6" stroke-width="1.5" opacity="0.6"/>
  <line x1="32" y1="18" x2="32" y2="6" stroke="#8b5cf6" stroke-width="1.5" opacity="0.6"/>
  <circle cx="20" cy="10" r="2" fill="#6366f1"/>
  <circle cx="44" cy="10" r="2" fill="#6366f1"/>
  <circle cx="32" cy="6" r="2" fill="#8b5cf6"/>
  <text x="32" y="58" font-family="Arial, sans-serif" font-size="8" font-weight="700" fill="#e6edf3" text-anchor="middle">DBN</text>
</svg>
